<?xml version="1.0" standalone="no"?>
<!DOCTYPE svg PUBLIC "-//W3C//DTD SVG 20010904//EN"
 "http://www.w3.org/TR/2001/REC-SVG-20010904/DTD/svg10.dtd">
<svg version="1.0" xmlns="http://www.w3.org/2000/svg"
 width="500.000000pt" height="500.000000pt" viewBox="0 0 500.000000 500.000000"
 preserveAspectRatio="xMidYMid meet">

<g transform="translate(0.000000,500.000000) scale(0.100000,-0.100000)"
fill="#000000" stroke="none">
<path d="M1260 2670 l0 -210 60 0 60 0 0 80 0 80 80 0 80 0 0 -80 0 -80 60 0
60 0 0 210 0 210 -60 0 -60 0 0 -80 0 -80 -80 0 -80 0 0 80 0 80 -60 0 -60 0
0 -210z"/>
<path d="M1845 2683 c-48 -109 -90 -204 -92 -210 -4 -10 11 -13 55 -13 l60 0
16 40 16 40 91 0 91 0 15 -40 16 -40 63 0 63 0 -43 98 c-24 53 -66 147 -93
207 l-49 110 -61 3 -61 3 -87 -198z m195 -45 c0 -4 -23 -8 -51 -8 -57 0 -56
-2 -17 90 l20 45 24 -59 c13 -33 24 -63 24 -68z"/>
<path d="M2320 2670 l0 -210 165 0 165 0 0 45 0 44 -102 3 -103 3 -3 163 -2
162 -60 0 -60 0 0 -210z"/>
<path d="M2740 2670 l0 -210 165 0 165 0 0 45 0 44 -102 3 -103 3 -3 163 -2
162 -60 0 -60 0 0 -210z"/>
<path d="M3215 2683 c-48 -109 -90 -204 -92 -210 -4 -10 11 -13 55 -13 l60 0
16 40 16 40 91 0 91 0 15 -40 16 -40 63 0 63 0 -43 98 c-24 53 -66 147 -93
207 l-49 110 -61 3 -61 3 -87 -198z m195 -45 c0 -4 -23 -8 -51 -8 -57 0 -56
-2 -17 90 l20 45 24 -59 c13 -33 24 -63 24 -68z"/>
<path d="M3690 2670 l0 -210 60 0 59 0 3 112 3 111 90 -111 90 -111 53 -1 52
0 0 210 0 210 -60 0 -60 0 0 -111 0 -111 -92 111 -92 111 -53 0 -53 0 0 -210z"/>
<path d="M1217 2223 c-4 -3 -7 -30 -7 -60 l0 -53 745 0 745 0 0 60 0 60 -738
0 c-406 0 -742 -3 -745 -7z"/>
<path d="M2797 2223 c18 -4 23 -12 26 -51 l3 -47 2 47 c2 35 6 48 20 51 9 3
-3 5 -28 4 -25 0 -35 -2 -23 -4z"/>
<path d="M2920 2180 l0 -50 38 2 c36 1 36 1 5 5 -43 6 -47 40 -5 46 l27 4 -27
2 c-40 2 -36 29 5 34 31 4 31 4 -5 5 l-38 2 0 -50z"/>
<path d="M3061 2216 c-21 -26 -9 -69 22 -80 18 -7 31 -6 38 1 7 7 4 9 -13 6
-29 -6 -51 17 -46 49 2 17 11 24 38 29 l35 6 -31 2 c-17 0 -37 -5 -43 -13z"/>
<path d="M3203 2180 c0 -30 2 -42 4 -26 4 25 8 28 39 24 19 -2 34 0 34 4 0 4
-15 8 -34 8 -28 0 -35 4 -39 23 -2 12 -4 -3 -4 -33z"/>
</g>
</svg>
